<svg width="79" height="31" viewBox="0 0 79 31" fill="none" xmlns="http://www.w3.org/2000/svg">
<path d="M78.3004 21.5554C78.1435 19.8645 77.9474 18.1863 77.4909 16.5489C77.1564 15.3015 76.7204 14.0836 76.1874 12.9077C75.3768 11.1561 74.3513 9.51285 73.1347 8.01599C72.1825 6.8412 71.1093 5.77043 69.933 4.82146C68.101 3.34849 66.04 2.18743 63.8324 1.38471C62.6106 0.927419 61.3507 0.580014 60.0675 0.3466C59.1296 0.192146 58.1837 0.0913206 57.2345 0.0446089C55.4119 -0.0611426 53.5832 0.0444151 51.7848 0.359186C50.6484 0.573891 49.5334 0.889717 48.4529 1.30292C46.7977 1.89161 45.2179 2.67514 43.7468 3.63708C42.3087 4.57842 40.9774 5.6744 39.7765 6.90553C38.7031 8.00633 37.7501 9.21911 36.934 10.5232C35.9923 12.0147 35.2518 13.6246 34.7316 15.311C34.6626 15.5375 34.7316 15.6256 34.9622 15.6256C35.9557 15.6256 36.9492 15.6256 37.9427 15.6256C38.0148 15.636 38.0881 15.6176 38.1468 15.5744C38.2054 15.5311 38.2448 15.4665 38.2564 15.3944C38.4492 14.7589 38.7029 14.1437 39.0141 13.5573C39.6516 12.2416 40.4666 11.0201 41.4362 9.92705C42.5968 8.59013 43.936 7.42038 45.4159 6.45097C46.6236 5.67584 47.904 5.02102 49.2388 4.49587C50.5592 3.97674 51.9395 3.62637 53.3472 3.45305C54.2398 3.34137 55.1371 3.22026 56.0297 3.25801C56.9787 3.28741 57.9252 3.3725 58.8643 3.51282C60.1957 3.7266 61.5044 4.06412 62.7735 4.52104C64.1406 5.02673 65.4428 5.69359 66.6529 6.50759C67.9181 7.35332 69.0705 8.3576 70.082 9.49608C70.9186 10.4253 71.6548 11.4408 72.2782 12.5255C73.1932 14.0877 73.8855 15.7708 74.3347 17.5257C74.7524 19.1316 74.9912 20.7791 75.0469 22.4378C75.1063 23.8089 75.0581 25.1826 74.9026 26.5462C74.7471 27.7879 74.5076 29.0176 74.1857 30.2267C74.0775 30.6168 74.1089 30.6844 74.5261 30.686C75.3889 30.686 76.2517 30.686 77.1113 30.6939C77.3639 30.6939 77.4815 30.6246 77.5396 30.3636C77.7894 29.3523 77.9759 28.3263 78.098 27.2917C78.2173 26.0192 78.3992 24.7546 78.3757 23.4743C78.3569 22.8326 78.3569 22.1956 78.3004 21.5554Z" fill="white"/>
<path d="M12.0174 20.7797C11.8751 20.1678 11.5816 19.6015 11.164 19.1329C10.2997 18.1499 9.14671 17.7173 7.88862 17.5947C6.61712 17.4448 5.3284 17.5654 4.10651 17.9486C3.11053 18.2709 2.15715 18.7129 1.26717 19.2651C0.961278 19.457 0.925195 19.6567 1.09775 19.9729C1.40143 20.5161 1.67481 21.0759 1.91661 21.6496C2.04995 21.9751 2.15348 21.9437 2.38722 21.7659C3.69551 20.7735 5.13243 20.149 6.8172 20.2387C7.33964 20.252 7.84396 20.4334 8.25569 20.7562C8.66512 21.0833 8.76395 21.5426 8.64316 22.0255C8.53962 22.4407 8.20549 22.6546 7.80547 22.7553C6.38581 23.1202 4.9034 23.1863 3.51354 23.7085C2.35741 24.1426 1.31737 24.6821 0.718131 25.8444C0.118891 27.0068 0.31184 28.7417 1.18874 29.7295C1.937 30.5662 2.89548 30.9013 3.99827 30.9768C5.85717 31.1042 7.40076 30.5442 8.54747 29.0327C8.60237 28.9603 8.63531 28.8581 8.74826 28.8958C8.8612 28.9336 8.86121 29.0327 8.86121 29.1255C8.86121 29.492 8.88474 29.86 8.86121 30.2265C8.83768 30.593 8.96317 30.6905 9.30357 30.6842C10.1522 30.6685 11.0009 30.6653 11.8496 30.6842C12.1633 30.6842 12.2198 30.5615 12.2182 30.291C12.2104 28.8518 12.2182 27.4142 12.2182 25.9766C12.2182 25.846 12.2182 25.7139 12.2182 25.5833C12.1272 23.9821 12.3923 22.3715 12.0174 20.7797ZM6.69798 28.1582C6.32051 28.3092 5.9221 28.4009 5.51676 28.4303C4.9034 28.3784 4.40926 28.317 4.12533 27.7807C3.97463 27.4704 3.93306 27.1181 4.00739 26.7811C4.08173 26.4441 4.2676 26.1423 4.53476 25.9247C5.40695 25.2798 6.44229 25.1461 7.46664 24.9809C7.73489 24.9369 8.00941 24.9479 8.27295 24.8457C8.50512 24.756 8.6557 24.8457 8.63845 25.1193C8.56943 26.192 7.95607 27.5935 6.69798 28.1582V28.1582Z" fill="white"/>
<path d="M49.7334 17.6478C48.8408 17.4905 47.9404 17.4338 47.0666 17.7122C46.1993 17.9792 45.4686 18.5721 45.0273 19.3669C44.9756 19.4581 44.9379 19.5682 44.8061 19.5494C44.6744 19.5305 44.6493 19.3921 44.6383 19.2804C44.6383 18.9281 44.6101 18.5742 44.6383 18.2234C44.6587 17.9246 44.5599 17.8349 44.265 17.8396C43.4032 17.8554 42.5415 17.8554 41.6797 17.8396C41.3456 17.8318 41.2201 17.9246 41.2217 18.2801C41.2374 20.2666 41.2217 22.2547 41.2217 24.2413C41.2217 26.242 41.2217 28.2411 41.2217 30.2418C41.2217 30.5564 41.3127 30.687 41.6468 30.6807C42.599 30.665 43.5528 30.6712 44.505 30.6807C44.7889 30.6807 44.8971 30.5832 44.8956 30.2906C44.8956 28.3166 44.8956 26.3427 44.8956 24.3687C44.883 23.861 44.9535 23.3546 45.1042 22.8697C45.716 21.0232 47.4933 20.1958 49.2408 21.0059C49.4557 21.105 49.4918 21.0279 49.5232 20.8753C49.7052 19.9819 49.873 19.0854 50.0628 18.2014C50.1162 17.8915 50.033 17.7012 49.7334 17.6478Z" fill="white"/>
<path d="M37.6609 17.8339C36.7605 17.8591 35.86 17.8622 34.9596 17.8339C34.5596 17.8198 34.4764 17.9692 34.4796 18.3325C34.4921 20.3065 34.4796 22.2789 34.4796 24.2513C34.4796 26.263 34.4796 28.2747 34.4796 30.2865C34.4796 30.601 34.5721 30.6923 34.8796 30.686C35.689 30.6655 36.4969 30.686 37.3064 30.6734C38.1158 30.6608 38.1189 30.848 38.1174 29.8602C38.1111 26.0056 38.1142 22.1515 38.1268 18.2979C38.1299 17.9362 38.0248 17.8245 37.6609 17.8339Z" fill="white"/>
<path d="M71.5537 21.6646C71.5669 20.7801 71.3096 19.9128 70.8164 19.1794C69.8187 17.7496 68.2077 17.2385 66.6139 17.4304C65.9545 17.505 65.3174 17.7142 64.7417 18.045C64.166 18.3759 63.6639 18.8213 63.2663 19.354C63.1204 19.5427 62.9965 19.5333 62.8694 19.354C62.7219 19.1432 62.6168 18.8821 62.4302 18.7248C61.0921 17.5263 59.5328 17.1519 57.7963 17.5719C57.3179 17.6835 56.8667 17.8899 56.4691 18.179C56.1029 18.4514 55.777 18.7744 55.5013 19.1385C55.462 19.1888 55.4244 19.2518 55.3444 19.2234C55.2644 19.1951 55.2738 19.1212 55.2738 19.0662C55.2738 18.7657 55.2738 18.4653 55.2738 18.1633C55.2738 17.8613 55.1828 17.7198 54.8393 17.7308C54.0298 17.7559 53.2204 17.7386 52.4109 17.7386C51.4948 17.7386 51.4697 17.7591 51.4697 18.6824V26.6868C51.4697 27.89 51.4697 29.0933 51.4697 30.295C51.4697 30.6096 51.5733 30.803 51.9121 30.803C52.9568 30.803 54.0016 30.803 55.0495 30.803C55.2063 30.803 55.2958 30.748 55.3083 30.586C55.3209 30.424 55.3397 30.2714 55.3397 30.1141C55.3397 28.0867 55.3303 26.0592 55.3554 24.0333C55.3679 22.9763 55.6142 22.0012 56.4111 21.2021C56.8597 20.7539 57.3947 20.6674 57.9312 20.702C58.2384 20.7058 58.5374 20.8023 58.7892 20.9788C59.4763 21.5183 59.6504 22.2843 59.663 23.0581C59.7022 25.4898 59.6818 27.9215 59.663 30.3548C59.663 30.6961 59.7556 30.8077 60.1054 30.7999C61.0183 30.7747 61.9329 30.7904 62.8474 30.7889C63.4169 30.7889 63.4106 30.7889 63.42 30.2242C63.4592 27.9907 63.3275 25.7556 63.4969 23.5237C63.5785 22.4573 63.8843 21.4994 64.8711 20.9363C66.0162 20.282 67.2476 20.8813 67.5378 21.9634C67.5723 22.0955 67.5535 22.2874 67.7574 22.3299C67.7684 22.4872 67.781 22.6445 67.792 22.8018C67.7339 22.8253 67.7276 22.8741 67.7276 22.9292C67.7276 25.4259 67.7276 27.9231 67.7276 30.4208C67.7276 30.7165 67.8453 30.7999 68.1277 30.7952C69.1081 30.781 70.0869 30.7763 71.0658 30.7952C71.4392 30.7952 71.5709 30.6772 71.5694 30.2981C71.5678 27.4182 71.5945 24.5414 71.5537 21.6646Z" fill="white"/>
<path d="M33.2853 11.983C32.7628 11.7271 32.2058 11.5491 31.6319 11.4545C30.4868 11.2972 29.3667 11.3271 28.2263 11.7534C26.736 12.3102 25.958 13.4143 25.4591 14.7937C25.1642 15.6069 25.1611 16.4767 25.2348 17.3355C25.2615 17.6501 25.1391 17.7696 24.8411 17.7649C24.3971 17.7649 23.9532 17.7649 23.5092 17.7649C22.4111 17.7649 21.3131 17.7649 20.215 17.7649C19.8887 17.7649 19.7365 17.6548 19.7585 17.3041C19.7836 16.9266 19.7287 16.5428 19.771 16.1685C19.8667 15.3128 20.2417 14.6349 21.0448 14.5075C21.5717 14.4021 22.1179 14.4568 22.6135 14.6648C23.0669 14.8692 23.2128 14.8032 23.3979 14.3203C23.6332 13.7037 23.9249 13.1123 24.1963 12.5146C24.3532 12.1544 24.2261 12.0758 23.9877 11.9704C23.2886 11.666 22.5486 11.4667 21.7915 11.379C20.768 11.2494 19.7286 11.3949 18.7796 11.8005C17.4541 12.3636 16.6446 13.4474 16.2242 14.8236C15.9858 15.5991 16.0187 16.3965 16.0015 17.1924C15.9889 17.7649 16.0015 17.7649 15.4415 17.7649C15.0509 17.7649 14.6571 17.7759 14.2665 17.7649C13.9528 17.7523 13.7959 17.8687 13.7959 18.1896C13.7959 18.91 13.7959 19.6288 13.7959 20.3476C13.7959 20.6244 13.9073 20.7691 14.2336 20.7408C14.6744 20.7031 15.1199 20.722 15.5638 20.7251C15.865 20.7251 15.9968 20.8682 15.9921 21.197C15.9513 24.2672 16.025 27.3312 15.9513 30.4109C15.9513 30.6075 15.9983 30.7664 16.2556 30.7648C17.3004 30.757 18.3451 30.7648 19.393 30.7538C19.4714 30.7538 19.622 30.8167 19.5954 30.6264C19.6575 30.4964 19.6788 30.3505 19.6565 30.208C19.6565 27.207 19.6565 24.2054 19.6565 21.2033C19.6565 21.0617 19.6785 20.9186 19.6895 20.777H24.8928C25.0073 20.777 25.1281 20.8132 25.2348 20.7424C25.2948 20.8875 25.3143 21.0463 25.2913 21.2017C25.2913 23.928 25.2913 26.6481 25.2913 29.3618C25.2913 29.766 25.3022 30.1718 25.3085 30.5761C25.2332 30.8907 25.4874 30.7633 25.5893 30.7648C26.5541 30.7743 27.5204 30.7522 28.4851 30.7743C28.871 30.7821 28.9667 30.6484 28.9651 30.2741C28.951 27.2699 28.9651 24.2657 28.951 21.2615C28.951 20.8745 29.0891 20.7644 29.4561 20.7739C30.2405 20.7959 31.0248 20.7849 31.8092 20.7817C32.2547 20.7817 32.3253 20.7031 32.3268 20.2517C32.3268 19.5989 32.3096 18.9446 32.3268 18.2918C32.341 17.9112 32.1825 17.7759 31.8233 17.7791C31.028 17.7869 30.2311 17.7665 29.4373 17.7869C29.0655 17.7964 28.94 17.6847 28.9447 17.2962C28.9447 16.7945 29.0436 16.2943 28.9761 15.791L29.0185 15.6006C29.1581 15.5786 29.1895 15.4544 29.2428 15.3568C29.5361 14.8158 29.9471 14.4902 30.5997 14.4855C31.0818 14.4773 31.5621 14.5463 32.0225 14.6899C32.2892 14.7749 32.4727 14.7544 32.5998 14.4336C32.8539 13.7871 33.1661 13.1627 33.4453 12.5241C33.5536 12.2929 33.53 12.0962 33.2853 11.983Z" fill="white"/>
</svg>
