<svg width="91" height="43" viewBox="0 0 91 43" fill="none" xmlns="http://www.w3.org/2000/svg">
<path d="M89.0154 32.7194H66.5764V7.35352H77.7232C79.71 7.35352 81.5679 8.33696 82.685 9.97989L89.0154 19.2904V32.7194Z" stroke="white" stroke-width="3" stroke-linejoin="round"/>
<path d="M66.5754 32.7195V7.5C66.5754 4.18629 63.8891 1.5 60.5754 1.5H33.551C30.2373 1.5 27.551 4.1863 27.551 7.50001V32.7195H66.5754Z" stroke="white" stroke-width="3" stroke-linejoin="round"/>
<path d="M38.7713 32.7188C41.196 32.7188 43.1616 34.6843 43.1616 37.109C43.1616 39.5337 41.196 41.4992 38.7713 41.4992C36.3467 41.4992 34.3811 39.5337 34.3811 37.109C34.3811 34.6843 36.3467 32.7188 38.7713 32.7188Z" stroke="white" stroke-width="3" stroke-linejoin="round"/>
<path d="M77.7967 32.7188C80.2214 32.7188 82.187 34.6843 82.187 37.109C82.187 39.5337 80.2214 41.4992 77.7967 41.4992C75.3721 41.4992 73.4065 39.5337 73.4065 37.109C73.4065 34.6843 75.3721 32.7188 77.7967 32.7188Z" stroke="white" stroke-width="3" stroke-linejoin="round"/>
<path d="M74.9201 14.1836H72.4299V23.9397H82.186V19.647L79.5971 16.4252C78.4583 15.008 76.7382 14.1836 74.9201 14.1836Z" stroke="white" stroke-width="3" stroke-linejoin="round"/>
<path d="M22.6736 25.891H13.8932H7.06389M36.3322 18.0861H0.234619M22.6736 10.2812H10.9663" stroke="#4197B4" stroke-width="3"/>
</svg>
