<svg width="21" height="27" viewBox="0 0 21 27" fill="none" xmlns="http://www.w3.org/2000/svg">
<path d="M19.2275 10.6071C19.2275 11.7119 18.7114 13.1886 17.8062 14.8751C16.917 16.5317 15.7195 18.27 14.5039 19.8635C13.2911 21.4533 12.0759 22.8786 11.1626 23.9076C10.8615 24.2468 10.5938 24.5424 10.3704 24.786C10.1469 24.5424 9.87918 24.2468 9.57809 23.9076C8.66486 22.8786 7.44966 21.4533 6.23684 19.8635C5.0212 18.27 3.8237 16.5317 2.9345 14.8751C2.02931 13.1886 1.51321 11.7119 1.51321 10.6071C1.51321 5.71548 5.47869 1.75 10.3704 1.75C15.262 1.75 19.2275 5.71548 19.2275 10.6071Z" stroke="#4197B4" stroke-width="2"/>
</svg>
