<svg width="92" height="91" viewBox="0 0 92 91" fill="none" xmlns="http://www.w3.org/2000/svg">
<path d="M22.375 41V37.5C22.375 26.4543 31.3293 17.5 42.375 17.5H49.375C60.4207 17.5 69.375 26.4543 69.375 37.5V41" stroke="white" stroke-width="3"/>
<path d="M23.3595 40.009L19.3595 42.3424C18.1306 43.0592 17.375 44.3748 17.375 45.7975V54C17.375 55.7778 18.5483 57.3422 20.255 57.84L24.255 59.0067C26.815 59.7533 29.375 57.8333 29.375 55.1667V43.4641C29.375 40.377 26.0261 38.4535 23.3595 40.009Z" stroke="white" stroke-width="3"/>
<path d="M68.3905 40.009L72.3905 42.3424C73.6194 43.0592 74.375 44.3748 74.375 45.7975V54C74.375 55.7778 73.2017 57.3422 71.495 57.84L67.495 59.0067C64.935 59.7533 62.375 57.8333 62.375 55.1667V43.4641C62.375 40.377 65.7239 38.4535 68.3905 40.009Z" stroke="white" stroke-width="3"/>
<path d="M68.375 59.5C68.375 61.3301 68.375 63.9921 66.375 65.4895C63.7083 67.486 57.0417 68.6507 55.375 68.4843" stroke="white" stroke-width="3"/>
<path d="M54.875 68C54.875 68.9227 53.9501 70 52.375 70C50.7999 70 49.875 68.9227 49.875 68C49.875 67.0773 50.7999 66 52.375 66C53.9501 66 54.875 67.0773 54.875 68Z" stroke="white" stroke-width="3"/>
<path d="M42.375 73.5C41.375 72.9872 39.375 71.1 39.375 67.6538C39.375 64.2077 41.375 62.1154 42.375 61.5" stroke="#4197B4" stroke-width="3" stroke-linecap="round"/>
<path d="M45.375 70.5C44.875 70.2436 43.875 69.3 43.875 67.5769C43.875 65.8538 44.875 64.8077 45.375 64.5" stroke="#4197B4" stroke-width="3" stroke-linecap="round"/>
</svg>
