<svg width="136" height="71" viewBox="0 0 136 71" fill="none" xmlns="http://www.w3.org/2000/svg">
<g clip-path="url(#clip0_658_12681)">
<path d="M5.99715 1.53835C5.34133 0.787405 3.46834 -0.525363 1.50643 1.06553C0.200337 2.18918 0.105854 3.31282 0.011371 3.69107C0.011371 4.06376 -0.177595 5.18741 1.03957 6.59474C2.25673 7.99651 13.8559 21.1019 13.8559 21.1019C13.8559 21.1019 24.7993 33.3674 27.228 35.8928C29.6568 38.4183 34.9923 43.1909 43.2235 43.4746C48.9258 43.6638 48.9258 43.5692 49.5816 43.5692H63.4262C63.7985 43.5692 67.0721 43.6638 70.5346 42.351C73.9971 41.0382 77.4541 38.4183 79.794 36.3601C82.1338 34.2074 88.2141 27.8438 88.5864 27.3765C91.4876 24.3839 92.8882 23.2602 95.6004 23.6329C98.4071 24.1002 102.242 24.7566 108.973 26.1583C109.162 26.2529 124.407 29.5293 124.59 29.6238C124.779 29.6238 127.302 30.2802 128.703 27.8438C129.92 25.5019 128.141 23.0711 126.646 22.7874C122.345 21.8529 117.948 20.8238 113.647 19.8837C113.274 19.7892 97.9347 16.4183 94.3777 16.4183C93.255 16.4183 90.6373 16.3237 87.6416 18.7601C84.4625 21.2855 81.6558 24.5619 81.189 24.9401C80.7221 25.4074 77.1651 29.2456 76.1369 30.1801C72.7689 33.3619 69.0285 36.4547 63.6985 36.4547H46.6749C45.9246 36.4547 41.1559 36.4547 38.5382 35.4256C35.637 34.3019 33.7696 32.711 31.5242 30.1856C29.2844 27.7437 5.99715 1.53835 5.99715 1.53835Z" fill="white"/>
<path d="M8.52017 60.3238C8.42569 57.9819 7.30301 56.0183 5.24661 56.0183C3.37918 56.0183 1.97305 57.7038 1.78409 60.3238H8.52017ZM0.105625 60.9746C0.105625 57.1364 2.35099 54.4219 5.24661 54.4219C8.42569 54.4219 10.2987 57.1364 10.2987 60.88V61.631H1.87857C2.06754 64.4401 3.75156 65.9364 5.71347 65.9364C7.11404 65.9364 8.05332 65.3746 8.98703 64.5346L10.0152 65.6583C8.89255 66.7819 7.5809 67.5329 5.71347 67.5329C2.62888 67.5329 0.100067 65.0075 0.100067 61.0747V60.9802L0.105625 60.9746Z" fill="white"/>
<path d="M14.228 54.7056H16.0065V57.5147C16.7569 55.7347 18.2519 54.522 20.3083 54.611V56.4856H20.2138C17.874 56.4856 16.0065 58.1711 16.0065 61.3529V67.3438H14.228V54.7056Z" fill="white"/>
<path d="M31.9019 60.3241C31.9019 57.6095 30.0289 55.9241 28.1615 55.9241C26.1996 55.9241 24.6101 57.515 24.6101 60.3241V60.4186C24.6101 63.1332 26.1996 64.8186 28.1615 64.8186C30.1234 64.8186 31.9019 63.1332 31.9019 60.3241ZM24.0432 68.095C25.2603 68.8459 26.6609 69.3132 28.067 69.3132C30.4069 69.3132 31.9019 68.095 31.9019 65.5696V63.695C31.0571 65.0968 29.7511 66.315 27.7891 66.315C25.2659 66.315 22.8316 64.1622 22.8316 60.4186V60.3241C22.8316 56.5805 25.2659 54.4277 27.7891 54.4277C29.7511 54.4277 31.0627 55.5514 31.9019 56.8641V54.6169H33.6804V65.475C33.6804 67.1605 33.2136 68.4677 32.2799 69.3132C31.3461 70.2477 29.94 70.715 28.1671 70.715C26.483 70.715 24.8935 70.2477 23.3985 69.4022L24.0543 68.0894L24.0432 68.095Z" fill="white"/>
<path d="M47.0526 60.88C47.0526 58.0709 45.3685 56.0128 43.2177 56.0128C41.0668 56.0128 39.4772 58.0709 39.4772 60.88V60.9746C39.4772 63.7837 41.1613 65.8419 43.3121 65.8419C45.463 65.8419 47.147 63.6891 47.147 60.9746L47.0526 60.88ZM37.6987 60.88C37.6987 57.231 40.0386 54.4219 43.3121 54.4219C46.5857 54.4219 48.8311 57.231 48.8311 60.88V60.9746C48.8311 64.6236 46.4912 67.4328 43.2177 67.4328C39.9441 67.4328 37.6987 64.6236 37.6987 60.9746V60.88Z" fill="white"/>
<path d="M52.9494 54.7056H54.6335V56.6692C55.2893 55.451 56.3175 54.4219 58.1849 54.4219C59.8689 54.4219 61.0861 55.3564 61.6474 56.6692C62.3977 55.451 63.6094 54.4219 65.4823 54.4219C67.9167 54.4219 69.5062 56.1073 69.5062 59.011V67.1546H67.7277V59.3837C67.7277 57.1364 66.6995 55.9182 65.0155 55.9182C63.4259 55.9182 62.0254 57.231 62.0254 59.4727V67.1491H60.2469V59.3781C60.2469 57.1309 59.2187 55.9126 57.5346 55.9126C55.8506 55.9126 54.5445 57.409 54.5445 59.4671V67.0489H52.8605V54.6944H52.955L52.9494 54.7056Z" fill="white"/>
<path d="M82.7839 60.88C82.7839 58.0709 81.0999 56.0128 78.949 56.0128C76.7981 56.0128 75.2086 58.0709 75.2086 60.88V60.9746C75.2086 63.7837 76.8926 65.8419 79.0435 65.8419C81.1943 65.8419 82.8784 63.6891 82.8784 60.9746V60.88H82.7839ZM73.4301 60.88C73.4301 57.231 75.7699 54.4219 79.0435 54.4219C82.317 54.4219 84.5624 57.231 84.5624 60.88V60.9746C84.5624 64.6236 82.2225 67.4328 78.949 67.4328C75.6754 67.4328 73.4301 64.6236 73.4301 60.9746V60.88Z" fill="white"/>
<path d="M89.142 64.3448V56.2958H87.6469V54.7994H89.142V51.1504H90.9205V54.7994H94.1941V56.2958H90.9205V64.0667C90.9205 65.3795 91.6708 65.8467 92.699 65.8467C93.1659 65.8467 93.6327 65.7522 94.1941 65.474V66.9704C93.6327 67.2485 92.9769 67.4376 92.3211 67.4376C90.5426 67.4376 89.142 66.5921 89.142 64.3504" fill="white"/>
<path d="M98.3069 67.2491H100.085V54.7055H98.3069V67.2491ZM98.2124 52.0855H100.174V50.0273H98.2124V52.0855Z" fill="white"/>
<path d="M113.646 60.88C113.646 58.0709 111.962 56.0128 109.812 56.0128C107.661 56.0128 106.071 58.0709 106.071 60.88V60.9746C106.071 63.7837 107.755 65.8419 109.906 65.8419C112.057 65.8419 113.741 63.6891 113.741 60.9746V60.88H113.646ZM104.293 60.88C104.293 57.231 106.632 54.4219 109.906 54.4219C113.18 54.4219 115.425 57.231 115.425 60.88V60.9746C115.425 64.6236 113.085 67.4328 109.812 67.4328C106.538 67.4328 104.293 64.6236 104.293 60.9746V60.88Z" fill="white"/>
<path d="M119.538 54.7057H121.316V56.7639C121.972 55.5457 123.189 54.5166 125.057 54.5166C127.58 54.5166 129.169 56.2966 129.169 59.1057V67.3439H127.296V59.573C127.296 57.3257 126.268 56.1075 124.395 56.1075C122.522 56.1075 121.216 57.5093 121.216 59.662V67.2438H119.438L119.532 54.7002L119.538 54.7057Z" fill="white"/>
<path d="M133.382 54.4216C133.755 54.4216 133.944 54.2324 133.944 53.9543C133.944 53.6762 133.755 53.4871 133.382 53.4871H132.632V54.4216H133.382ZM132.071 53.0198H133.382C133.755 53.0198 134.038 53.1144 134.316 53.2979C134.505 53.4871 134.599 53.6706 134.599 53.9543C134.599 54.4216 134.316 54.7053 133.944 54.7998L134.694 55.9235H134.038L133.288 54.8944H132.632V55.9235H132.071V53.0198ZM135.717 54.5161C135.717 53.1144 134.594 51.9907 133.193 51.9907C131.793 51.9907 130.67 53.1144 130.67 54.5161C130.67 55.9179 131.793 57.0415 133.193 57.0415C134.594 57.0415 135.717 55.9179 135.717 54.5161ZM130.387 54.5161C130.387 52.9252 131.698 51.707 133.193 51.707C134.783 51.707 136 52.9252 136 54.5161C136 56.107 134.688 57.3252 133.193 57.3252C131.698 57.3252 130.387 56.107 130.387 54.5161Z" fill="white"/>
</g>
<defs>
<clipPath id="clip0_658_12681">
<rect width="136" height="70.4" fill="white" transform="translate(0 0.31543)"/>
</clipPath>
</defs>
</svg>
