<svg width="134" height="132" viewBox="0 0 134 132" fill="none" xmlns="http://www.w3.org/2000/svg">
<rect width="133.517" height="132" fill="#4197B4"/>
<g clip-path="url(#clip0_2385_2008)">
<path d="M19.7218 55.2451C19.2243 54.6754 17.8034 53.6795 16.3151 54.8864C15.3243 55.7388 15.2526 56.5912 15.1809 56.8782C15.1809 57.1609 15.0375 58.0133 15.9609 59.0809C16.8843 60.1443 25.6837 70.0864 25.6837 70.0864C25.6837 70.0864 33.9855 79.3913 35.828 81.3071C37.6705 83.2229 41.7182 86.8436 47.9625 87.0588C52.2884 87.2023 52.2884 87.1305 52.7859 87.1305H63.2887C63.5712 87.1305 66.0546 87.2023 68.6813 86.2064C71.308 85.2105 73.9306 83.2229 75.7056 81.6616C77.4807 80.0285 82.0933 75.2009 82.3758 74.8464C84.5767 72.5761 85.6392 71.7237 87.6967 72.0065C89.8259 72.3609 92.7352 72.8589 97.8411 73.9223C97.9845 73.994 109.55 76.4795 109.689 76.5513C109.832 76.5513 111.746 77.0492 112.809 75.2009C113.732 73.4243 112.383 71.5802 111.249 71.365C107.985 70.6561 104.65 69.8754 101.387 69.1622C101.104 69.0905 89.4676 66.5333 86.7691 66.5333C85.9174 66.5333 83.9316 66.4615 81.659 68.3098C79.2473 70.2257 77.1181 72.7112 76.7639 72.9981C76.4097 73.3526 73.7113 76.2643 72.9313 76.9733C70.3762 79.387 67.5387 81.7333 63.4953 81.7333H50.5808C50.0116 81.7333 46.394 81.7333 44.4082 80.9526C42.2073 80.1002 40.7906 78.8933 39.0872 76.9775C37.3881 75.125 19.7218 55.2451 19.7218 55.2451Z" fill="white"/>
<path d="M21.6362 99.8409C21.5645 98.0644 20.7128 96.5748 19.1528 96.5748C17.7361 96.5748 16.6694 97.8534 16.5261 99.8409H21.6362ZM15.2528 100.335C15.2528 97.423 16.9561 95.3636 19.1528 95.3636C21.5645 95.3636 22.9854 97.423 22.9854 100.263V100.833H16.5977C16.7411 102.964 18.0186 104.099 19.507 104.099C20.5695 104.099 21.282 103.673 21.9904 103.035L22.7704 103.888C21.9187 104.74 20.9237 105.31 19.507 105.31C17.1669 105.31 15.2485 103.394 15.2485 100.411V100.339L15.2528 100.335Z" fill="white"/>
<path d="M25.9663 95.5787H27.3155V97.7098C27.8847 96.3594 29.0189 95.4395 30.5789 95.507V96.9291H30.5072C28.7322 96.9291 27.3155 98.2077 27.3155 100.622V105.166H25.9663V95.5787Z" fill="white"/>
<path d="M39.3741 99.8409C39.3741 97.7816 37.9532 96.5029 36.5366 96.5029C35.0482 96.5029 33.8424 97.7098 33.8424 99.8409V99.9126C33.8424 101.972 35.0482 103.251 36.5366 103.251C38.0249 103.251 39.3741 101.972 39.3741 99.8409ZM33.4123 105.736C34.3357 106.306 35.3982 106.66 36.4649 106.66C38.24 106.66 39.3741 105.736 39.3741 103.82V102.398C38.7333 103.462 37.7424 104.386 36.2541 104.386C34.3399 104.386 32.4932 102.753 32.4932 99.9126V99.8409C32.4932 97.0009 34.3399 95.3678 36.2541 95.3678C37.7424 95.3678 38.7375 96.2202 39.3741 97.2161V95.5113H40.7233V103.748C40.7233 105.027 40.3692 106.019 39.6608 106.66C38.9525 107.369 37.8858 107.724 36.5408 107.724C35.2633 107.724 34.0574 107.369 32.9232 106.728L33.4207 105.732L33.4123 105.736Z" fill="white"/>
<path d="M50.8675 100.263C50.8675 98.1319 49.59 96.5705 47.9583 96.5705C46.3266 96.5705 45.1207 98.1319 45.1207 100.263V100.335C45.1207 102.466 46.3982 104.027 48.0299 104.027C49.6616 104.027 50.9392 102.394 50.9392 100.335L50.8675 100.263ZM43.7715 100.263C43.7715 97.4947 45.5465 95.3636 48.0299 95.3636C50.5133 95.3636 52.2167 97.4947 52.2167 100.263V100.335C52.2167 103.103 50.4416 105.234 47.9583 105.234C45.4749 105.234 43.7715 103.103 43.7715 100.335V100.263Z" fill="white"/>
<path d="M55.3414 95.5789H56.6189V97.0685C57.1164 96.1443 57.8965 95.3636 59.3131 95.3636C60.5907 95.3636 61.514 96.0726 61.9399 97.0685C62.5091 96.1443 63.4282 95.3636 64.8491 95.3636C66.6958 95.3636 67.9017 96.6423 67.9017 98.8451V105.023H66.5525V99.1278C66.5525 97.423 65.7725 96.4988 64.4949 96.4988C63.2891 96.4988 62.2266 97.4947 62.2266 99.1953V105.019H60.8774V99.1236C60.8774 97.4187 60.0974 96.4946 58.8198 96.4946C57.5423 96.4946 56.5515 97.6297 56.5515 99.1911V104.943H55.2739V95.5704H55.3456L55.3414 95.5789Z" fill="white"/>
<path d="M77.9744 100.263C77.9744 98.1319 76.6969 96.5705 75.0652 96.5705C73.4335 96.5705 72.2276 98.1319 72.2276 100.263V100.335C72.2276 102.466 73.5052 104.027 75.1369 104.027C76.7686 104.027 78.0461 102.394 78.0461 100.335V100.263H77.9744ZM70.8784 100.263C70.8784 97.4947 72.6535 95.3636 75.1369 95.3636C77.6203 95.3636 79.3236 97.4947 79.3236 100.263V100.335C79.3236 103.103 77.5486 105.234 75.0652 105.234C72.5818 105.234 70.8784 103.103 70.8784 100.335V100.263Z" fill="white"/>
<path d="M82.7978 102.892V96.7855H81.6636V95.6504H82.7978V92.8821H84.147V95.6504H86.6304V96.7855H84.147V102.681C84.147 103.677 84.7162 104.031 85.4962 104.031C85.8503 104.031 86.2045 103.959 86.6304 103.748V104.884C86.2045 105.094 85.707 105.238 85.2095 105.238C83.8603 105.238 82.7978 104.597 82.7978 102.896" fill="white"/>
<path d="M89.7504 105.095H91.0996V95.5788H89.7504V105.095ZM89.6787 93.5912H91.1671V92.0299H89.6787V93.5912Z" fill="white"/>
<path d="M101.388 100.263C101.388 98.1319 100.11 96.5705 98.4783 96.5705C96.8466 96.5705 95.6407 98.1319 95.6407 100.263V100.335C95.6407 102.466 96.9183 104.027 98.55 104.027C100.182 104.027 101.459 102.394 101.459 100.335V100.263H101.388ZM94.2915 100.263C94.2915 97.4947 96.0666 95.3636 98.55 95.3636C101.033 95.3636 102.737 97.4947 102.737 100.263V100.335C102.737 103.103 100.962 105.234 98.4783 105.234C95.9949 105.234 94.2915 103.103 94.2915 100.335V100.263Z" fill="white"/>
<path d="M105.857 95.5788H107.206V97.1402C107.703 96.216 108.627 95.4354 110.043 95.4354C111.958 95.4354 113.163 96.7857 113.163 98.9168V105.166H111.743V99.2712C111.743 97.5664 110.963 96.6423 109.542 96.6423C108.121 96.6423 107.13 97.7057 107.13 99.3388V105.09H105.781L105.852 95.5746L105.857 95.5788Z" fill="white"/>
<path d="M116.359 95.3634C116.642 95.3634 116.785 95.22 116.785 95.009C116.785 94.798 116.642 94.6545 116.359 94.6545H115.79V95.3634H116.359ZM115.364 94.3H116.359C116.642 94.3 116.857 94.3718 117.068 94.511C117.211 94.6545 117.283 94.7937 117.283 95.009C117.283 95.3634 117.068 95.5786 116.785 95.6504L117.355 96.5028H116.857L116.288 95.7221H115.79V96.5028H115.364V94.3ZM118.13 95.4352C118.13 94.3718 117.279 93.5193 116.216 93.5193C115.154 93.5193 114.302 94.3718 114.302 95.4352C114.302 96.4986 115.154 97.351 116.216 97.351C117.279 97.351 118.13 96.4986 118.13 95.4352ZM114.087 95.4352C114.087 94.2283 115.082 93.3041 116.216 93.3041C117.422 93.3041 118.345 94.2283 118.345 95.4352C118.345 96.6421 117.35 97.5662 116.216 97.5662C115.082 97.5662 114.087 96.6421 114.087 95.4352Z" fill="white"/>
</g>
<defs>
<clipPath id="clip0_2385_2008">
<rect width="103.172" height="53.4069" fill="white" transform="translate(15.1724 54.3172)"/>
</clipPath>
</defs>
</svg>
