<svg width="187" height="71" viewBox="0 0 187 71" fill="none" xmlns="http://www.w3.org/2000/svg">
<rect width="187" height="71" fill="#4197B4"/>
<g clip-path="url(#clip0_2976_1862)">
<path d="M58.3955 16.6775C58.0242 16.2615 56.9638 15.5342 55.853 16.4155C55.1135 17.038 55.06 17.6605 55.0065 17.87C55.0065 18.0765 54.8995 18.699 55.5887 19.4786C56.2778 20.2551 62.845 27.5153 62.845 27.5153C62.845 27.5153 69.0408 34.3101 70.416 35.7091C71.7911 37.1081 74.8119 39.7521 79.4722 39.9092C82.7007 40.014 82.7007 39.9616 83.072 39.9616H90.9105C91.1213 39.9616 92.9747 40.014 94.9351 39.2867C96.8955 38.5595 98.8528 37.1081 100.178 35.9679C101.502 34.7754 104.945 31.2501 105.156 30.9912C106.798 29.3334 107.591 28.7109 109.127 28.9174C110.716 29.1762 112.887 29.5398 116.698 30.3164C116.805 30.3688 125.436 32.1838 125.54 32.2362C125.647 32.2362 127.076 32.5998 127.869 31.2501C128.558 29.9528 127.551 28.6061 126.704 28.449C124.269 27.9313 121.78 27.3612 119.344 26.8404C119.133 26.788 110.448 24.9206 108.435 24.9206C107.799 24.9206 106.317 24.8682 104.621 26.2179C102.821 27.6169 101.232 29.432 100.967 29.6415C100.703 29.9004 98.6891 32.0266 98.107 32.5443C96.2001 34.307 94.0824 36.0203 91.0647 36.0203H81.4263C81.0015 36.0203 78.3016 36.0203 76.8195 35.4502C75.1769 34.8278 74.1196 33.9464 72.8484 32.5474C71.5802 31.1946 58.3955 16.6775 58.3955 16.6775Z" fill="white"/>
<path d="M59.8239 49.2434C59.7704 47.946 59.1348 46.8583 57.9705 46.8583C56.9132 46.8583 56.1171 47.792 56.0101 49.2434H59.8239ZM55.0598 49.6039C55.0598 47.4776 56.3311 45.9739 57.9705 45.9739C59.7704 45.9739 60.8309 47.4776 60.8309 49.5515V49.9675H56.0636C56.1706 51.5237 57.124 52.3526 58.2348 52.3526C59.0278 52.3526 59.5596 52.0414 60.0882 51.5761L60.6704 52.1986C60.0347 52.821 59.2921 53.237 58.2348 53.237C56.4884 53.237 55.0567 51.838 55.0567 49.6594V49.607L55.0598 49.6039Z" fill="white"/>
<path d="M63.0556 46.1309H64.0625V47.6871C64.4873 46.701 65.3338 46.0292 66.4981 46.0785V47.117H66.4446C65.1198 47.117 64.0625 48.0507 64.0625 49.8134V53.1322H63.0556V46.1309Z" fill="white"/>
<path d="M73.0621 49.2433C73.0621 47.7395 72.0017 46.8058 70.9444 46.8058C69.8336 46.8058 68.9336 47.6871 68.9336 49.2433V49.2957C68.9336 50.7995 69.8336 51.7332 70.9444 51.7332C72.0552 51.7332 73.0621 50.7995 73.0621 49.2433ZM68.6127 53.5482C69.3018 53.9642 70.0948 54.2231 70.8909 54.2231C72.2157 54.2231 73.0621 53.5482 73.0621 52.1492V51.1107C72.5838 51.8873 71.8443 52.5621 70.7336 52.5621C69.3049 52.5621 67.9267 51.3696 67.9267 49.2957V49.2433C67.9267 47.1694 69.3049 45.9769 70.7336 45.9769C71.8443 45.9769 72.587 46.5994 73.0621 47.3266V46.0817H74.0691V52.0968C74.0691 53.0305 73.8047 53.7547 73.2761 54.2231C72.7474 54.7408 71.9513 54.9996 70.9475 54.9996C69.9941 54.9996 69.0941 54.7408 68.2477 54.2724L68.619 53.5451L68.6127 53.5482Z" fill="white"/>
<path d="M81.6401 49.5515C81.6401 47.9953 80.6866 46.8552 79.4688 46.8552C78.2511 46.8552 77.3511 47.9953 77.3511 49.5515V49.6039C77.3511 51.1601 78.3045 52.3003 79.5223 52.3003C80.7401 52.3003 81.6936 51.1077 81.6936 49.6039L81.6401 49.5515ZM76.3441 49.5515C76.3441 47.53 77.6689 45.9739 79.5223 45.9739C81.3757 45.9739 82.647 47.53 82.647 49.5515V49.6039C82.647 51.6254 81.3222 53.1816 79.4688 53.1816C77.6154 53.1816 76.3441 51.6254 76.3441 49.6039V49.5515Z" fill="white"/>
<path d="M84.9787 46.131H85.9322V47.2188C86.3035 46.5439 86.8856 45.9739 87.9429 45.9739C88.8964 45.9739 89.5855 46.4915 89.9033 47.2188C90.3281 46.5439 91.0141 45.9739 92.0746 45.9739C93.4528 45.9739 94.3528 46.9076 94.3528 48.5161V53.0275H93.3458V48.7226C93.3458 47.4776 92.7637 46.8028 91.8102 46.8028C90.9103 46.8028 90.1173 47.53 90.1173 48.7719V53.0244H89.1104V48.7195C89.1104 47.4746 88.5282 46.7997 87.5748 46.7997C86.6213 46.7997 85.8818 47.6286 85.8818 48.7688V52.969H84.9284V46.1248H84.9819L84.9787 46.131Z" fill="white"/>
<path d="M101.87 49.5515C101.87 47.9953 100.917 46.8552 99.699 46.8552C98.4813 46.8552 97.5813 47.9953 97.5813 49.5515V49.6039C97.5813 51.1601 98.5348 52.3003 99.7525 52.3003C100.97 52.3003 101.924 51.1077 101.924 49.6039V49.5515H101.87ZM96.5744 49.5515C96.5744 47.53 97.8991 45.9739 99.7525 45.9739C101.606 45.9739 102.877 47.53 102.877 49.5515V49.6039C102.877 51.6254 101.552 53.1816 99.699 53.1816C97.8456 53.1816 96.5744 51.6254 96.5744 49.6039V49.5515Z" fill="white"/>
<path d="M105.47 51.4712V47.0122H104.624V46.1832H105.47V44.1617H106.477V46.1832H108.33V47.0122H106.477V51.3171C106.477 52.0443 106.902 52.3032 107.484 52.3032C107.748 52.3032 108.013 52.2508 108.33 52.0967V52.9256C108.013 53.0797 107.641 53.1845 107.27 53.1845C106.263 53.1845 105.47 52.7161 105.47 51.4742" fill="white"/>
<path d="M110.659 53.0798H111.666V46.131H110.659V53.0798ZM110.606 44.6795H111.716V43.5394H110.606V44.6795Z" fill="white"/>
<path d="M119.344 49.5515C119.344 47.9953 118.39 46.8552 117.173 46.8552C115.955 46.8552 115.055 47.9953 115.055 49.5515V49.6039C115.055 51.1601 116.008 52.3003 117.226 52.3003C118.444 52.3003 119.397 51.1077 119.397 49.6039V49.5515H119.344ZM114.048 49.5515C114.048 47.53 115.373 45.9739 117.226 45.9739C119.08 45.9739 120.351 47.53 120.351 49.5515V49.6039C120.351 51.6254 119.026 53.1816 117.173 53.1816C115.319 53.1816 114.048 51.6254 114.048 49.6039V49.5515Z" fill="white"/>
<path d="M122.679 46.131H123.686V47.2712C124.058 46.5963 124.747 46.0262 125.804 46.0262C127.233 46.0262 128.133 47.0123 128.133 48.5685V53.1323H127.072V48.8273C127.072 47.5824 126.49 46.9075 125.43 46.9075C124.369 46.9075 123.63 47.6841 123.63 48.8766V53.0768H122.623L122.676 46.1279L122.679 46.131Z" fill="white"/>
<path d="M130.518 45.9737C130.729 45.9737 130.836 45.8689 130.836 45.7148C130.836 45.5608 130.729 45.456 130.518 45.456H130.093V45.9737H130.518ZM129.775 45.1971H130.518C130.729 45.1971 130.889 45.2495 131.047 45.3512C131.154 45.456 131.207 45.5577 131.207 45.7148C131.207 45.9737 131.047 46.1308 130.836 46.1832L131.261 46.8057H130.889L130.464 46.2356H130.093V46.8057H129.775V45.1971ZM131.84 46.0261C131.84 45.2495 131.204 44.627 130.411 44.627C129.618 44.627 128.982 45.2495 128.982 46.0261C128.982 46.8026 129.618 47.4251 130.411 47.4251C131.204 47.4251 131.84 46.8026 131.84 46.0261ZM128.822 46.0261C128.822 45.1447 129.564 44.4699 130.411 44.4699C131.311 44.4699 132 45.1447 132 46.0261C132 46.9074 131.257 47.5822 130.411 47.5822C129.564 47.5822 128.822 46.9074 128.822 46.0261Z" fill="white"/>
</g>
<defs>
<clipPath id="clip0_2976_1862">
<rect width="77" height="39" fill="white" transform="translate(55 16)"/>
</clipPath>
</defs>
</svg>
