<svg width="14" height="14" viewBox="0 0 14 14" fill="none" xmlns="http://www.w3.org/2000/svg">
<path id="Vector" d="M9.93381 0.880873L10.0102 1.03344L10.5867 2.56642C10.632 2.68714 10.7272 2.7824 10.848 2.82769L12.328 3.38296C12.9775 3.62664 13.3266 4.32067 13.1535 4.97733L13.1118 5.10802L12.4233 6.63084C12.3699 6.74823 12.3699 6.88294 12.4233 7.00033L13.0772 8.43954C13.3642 9.07111 13.1202 9.80867 12.5335 10.1506L12.3809 10.227L10.848 10.8035C10.7272 10.8488 10.632 10.944 10.5867 11.0648L10.0314 12.5448C9.78774 13.1943 9.0937 13.5434 8.43705 13.3703L8.30636 13.3286L6.78354 12.6401C6.66615 12.5867 6.53143 12.5867 6.41404 12.6401L4.97484 13.294C4.34327 13.581 3.60571 13.337 3.26377 12.7503L3.18735 12.5977L2.61089 11.0648C2.5656 10.944 2.47034 10.8488 2.34962 10.8035L0.869549 10.2482C0.220046 10.0045 -0.128977 9.3105 0.0440967 8.65385L0.0857385 8.52316L0.774305 7.00033C0.827643 6.88294 0.827643 6.74823 0.774305 6.63084L0.120374 5.19163C-0.166592 4.56006 0.0773694 3.82251 0.664076 3.48056L0.816641 3.40414L2.34962 2.82769C2.47034 2.7824 2.5656 2.68714 2.61089 2.56642L3.16617 1.08635C3.40984 0.436843 4.10388 0.0878196 4.76053 0.260894L4.89122 0.302535L6.41404 0.991102C6.53143 1.04444 6.66615 1.04444 6.78354 0.991102L8.22274 0.337171C8.85431 0.0502047 9.59187 0.294166 9.93381 0.880873ZM8.76269 4.5215L5.57704 8.16224L4.41459 6.99979C4.24018 6.82538 3.9574 6.82538 3.78299 6.99979C3.60859 7.1742 3.60859 7.45697 3.78299 7.63138L5.28299 9.13138C5.46567 9.31406 5.76477 9.3041 5.93489 9.10968L9.43489 5.10968C9.59731 4.92405 9.5785 4.64191 9.39288 4.47948C9.20726 4.31706 8.92511 4.33587 8.76269 4.5215Z" fill="#4197B4"/>
</svg>
